HIERARCHY
ROOT Hips
{
	OFFSET 0.00000 0.00000 0.00000
	CHANNELS 6 Xposition Yposition Zposition Zrotation Yrotation Xrotation 
	JOINT LHipJoint
	{
		OFFSET 0 0 0
		CHANNELS 3 Zrotation Yrotation Xrotation
		JOINT LeftHip
		{
			OFFSET 1.76014 -1.80163 0.38499
			CHANNELS 3 Zrotation Yrotation Xrotation
			JOINT LeftKnee
			{
				OFFSET 2.46817 -6.78126 0.00000
				CHANNELS 3 Zrotation Yrotation Xrotation
				JOINT LeftAnkle
				{
					OFFSET 2.79348 -7.67503 0.00000
					CHANNELS 3 Zrotation Yrotation Xrotation
					JOINT LeftToe
					{
						OFFSET 0.09421 -0.25885 1.91403
						CHANNELS 3 Zrotation Yrotation Xrotation
						End Site
						{
							OFFSET 0.00000 -0.00000 0.97975
						}
					}
				}
			}
		}
	}
	JOINT RHipJoint
	{
		OFFSET 0 0 0
		CHANNELS 3 Zrotation Yrotation Xrotation
		JOINT RightHip
		{
			OFFSET -1.77926 -1.80163 0.38499
			CHANNELS 3 Zrotation Yrotation Xrotation
			JOINT RightKnee
			{
				OFFSET -2.51996 -6.92353 0.00000
				CHANNELS 3 Zrotation Yrotation Xrotation
				JOINT RightAnkle
				{
					OFFSET -2.76109 -7.58603 0.00000
					CHANNELS 3 Zrotation Yrotation Xrotation
					JOINT RightToe
					{
						OFFSET -0.08067 -0.22163 1.86812
						CHANNELS 3 Zrotation Yrotation Xrotation
						End Site
						{
							OFFSET -0.00000 -0.00000 0.95558
						}
					}
				}
			}
		}
	}
	JOINT lowerback
	{
		OFFSET 0 0 0
		CHANNELS 3 Zrotation Yrotation Xrotation
		JOINT Chest
		{
			OFFSET 0.05537 1.92033 -0.03713
			CHANNELS 3 Zrotation Yrotation Xrotation
			JOINT Chest2
			{
				OFFSET 0.04452 1.90073 0.10860
				CHANNELS 3 Zrotation Yrotation Xrotation
				JOINT lowerneck
				{
					OFFSET 0 0 0
					CHANNELS 3 Zrotation Yrotation Xrotation
					JOINT Neck
					{
						OFFSET 0.00903 1.74649 0.02074
						CHANNELS 3 Zrotation Yrotation Xrotation
						JOINT Head
						{
							OFFSET -0.08608 1.67844 -0.12081
							CHANNELS 3 Zrotation Yrotation Xrotation
							End Site
							{
								OFFSET -0.03521 1.83380 -0.05059
							}
						}
					}
				}
				JOINT LeftCollar
				{
					OFFSET 0 0 0
					CHANNELS 3 Zrotation Yrotation Xrotation
					JOINT LeftShoulder
					{
						OFFSET 3.28197 0.84325 -0.19106
CHANNELS 3 Zrotation Xrotation Yrotation
						JOINT LeftElbow
						{
OFFSET 0 -5.243180 -0.000000
CHANNELS 3 Zrotation Xrotation Yrotation
							JOINT LeftWrist
							{
OFFSET 0 -2.989990 0.000000
CHANNELS 3 Zrotation Xrotation Yrotation
								JOINT lhand
								{
									OFFSET 0 0 0
CHANNELS 3 Zrotation Xrotation Yrotation
									JOINT LFingers
									{
OFFSET 0 -0.726740 0.000000
CHANNELS 3 Zrotation Xrotation Yrotation
										End Site
										{
OFFSET 0 -0.585920 0.000000
										}
									}
								}
								JOINT LThumb
								{
OFFSET 0 0.000000 0.000000
CHANNELS 3 Zrotation Xrotation Yrotation
									End Site
									{
OFFSET 0 -0.594870 0.594870
									}
								}
							}
						}
					}
				}
				JOINT RightCollar
				{
					OFFSET 0 0 0
					CHANNELS 3 Zrotation Yrotation Xrotation
					JOINT RightShoulder
					{
						OFFSET -3.30963 0.78377 0.14264
CHANNELS 3 Zrotation Xrotation Yrotation
						JOINT RightElbow
						{
OFFSET 0 -5.370450 0.000000
CHANNELS 3 Zrotation Xrotation Yrotation
							JOINT RightWrist
							{
OFFSET 0 -2.927920 0.000000
CHANNELS 3 Zrotation Xrotation Yrotation
								JOINT rhand
								{
									OFFSET 0 0 0
CHANNELS 3 Zrotation Xrotation Yrotation
									JOINT RFingers
									{
OFFSET 0 -0.784500 0.000000
CHANNELS 3 Zrotation Xrotation Yrotation
										End Site
										{
OFFSET 0 -0.632480 0.000000
										}
									}
								}
								JOINT RThumb
								{
OFFSET 0 0.000000 0.000000
CHANNELS 3 Zrotation Xrotation Yrotation
									End Site
									{
OFFSET 0 -0.642140 0.642140
									}
								}
							}
						}
					}
				}
			}
		}
	}
}
MOTION
Frames: 10
Frame Time: 0.008333333333333333
0.285400 18.156400 -0.051400 -2.572500 16.783200 3.567100 0.000000 0.000000 0.000000 -14.587800 -25.180300 -7.854800 1.503700 7.745100 21.942400 0.036400 4.308000 -7.388300 1.747200 -8.318400 -23.685500 0.000000 0.000000 0.000000 21.721200 4.771300 -8.103800 -0.879500 -5.978700 16.722600 0.548100 -17.778300 -19.539800 -0.058900 -1.566600 4.309400 0.379100 -1.163700 -6.382700 1.278600 -1.688900 4.335600 0.909400 -0.843200 8.176300 -1.112300 -4.629700 -8.296700 -4.917200 -5.679100 5.987500 -1.725300 -3.045800 3.286900 0.000000 0.000000 0.000000 26.122500 -63.133900 -56.219800 53.810400 -54.421300 29.246000 16.694600 -26.144100 -29.791100 0.000000 0.000000 0.000000 -7.125000 0.000000 0.000000 -16.710900 60.064100 6.246300 0.000000 0.000000 0.000000 -15.356000 -62.908800 62.876800 -60.294700 -56.388000 -34.586500 -26.155000 -40.955000 -2.916800 0.000000 0.000000 0.000000 7.125000 0.000000 -0.000000 0.341400 26.730900 0.151400
0.020952 18.131454 -0.621795 -5.434532 19.915334 5.091645 0.000000 0.000000 0.000000 -8.423139 -29.550546 -14.379261 1.810297 8.459239 24.117959 0.020907 3.847924 -6.316340 1.719109 -8.254694 -23.490520 0.000000 0.000000 0.000000 24.937415 1.453743 -13.968210 -0.787896 -5.666288 15.819271 0.777751 -17.674382 -15.920421 -0.045179 -1.371530 3.771634 -1.098050 -3.125420 -4.791543 0.228690 -4.101008 7.260214 0.290815 -2.073387 10.516568 -2.668935 -2.565092 -9.197473 -7.090992 -2.479881 6.350425 -2.044945 -1.610609 3.670729 0.000000 0.000000 0.000000 263.918010 -76.670900 -159.681448 11.197453 -18.589806 1.838735 11.444756 -2.320752 -28.211645 0.000000 0.000000 0.000000 -7.125000 0.000000 0.000000 -21.096094 57.402211 6.604688 0.000000 0.000000 0.000000 32.379738 -84.195010 73.412276 -20.931357 -31.746057 -6.014803 -14.137888 -27.487754 -6.465726 0.000000 0.000000 0.000000 7.125000 0.000000 0.000000 9.277828 23.331390 4.907043
0.257943 18.124397 -0.272257 -3.011276 7.868777 6.381480 0.000000 0.000000 0.000000 -13.252068 -24.040698 -11.820056 1.850891 8.548365 24.392417 -0.335963 11.851913 -10.801394 1.197112 -6.940949 -19.541095 0.000000 0.000000 0.000000 21.122254 7.378449 -13.504150 -1.002988 -6.372968 17.870536 0.473648 -13.285869 -10.816421 -0.492260 4.494421 -12.472612 0.380638 -0.661812 -4.711022 0.758405 -0.998067 8.676513 0.459539 -0.482648 11.985949 0.315441 -4.326421 -3.536071 -8.586235 -5.178273 7.299549 -3.046221 -2.842806 2.726806 0.000000 0.000000 0.000000 52.011494 -13.311490 -35.337037 145.607743 -44.345345 105.603933 18.727683 -34.735533 -36.853361 0.000000 0.000000 0.000000 -7.125000 0.000000 0.000000 -20.929553 67.232962 11.402018 0.000000 0.000000 0.000000 8.617141 -56.030469 114.337963 -111.652402 -58.149308 -78.634681 -35.551780 -48.774564 -1.500732 0.000000 0.000000 0.000000 7.125000 0.000000 0.000000 -6.935826 28.111160 -2.869129
0.438976 18.114399 -0.030865 -1.623879 12.235431 5.296853 0.000000 0.000000 0.000000 -15.740584 -22.545088 -10.327712 1.703633 8.219421 23.382472 0.009817 6.298166 -9.240249 1.362613 -7.388546 -20.871616 0.000000 0.000000 0.000000 19.492793 6.586528 -11.789193 -1.253551 -7.098152 20.006503 0.266277 -14.117847 -16.660862 -0.001331 0.199968 -0.549465 1.326076 0.250099 -5.792128 2.613958 -0.033254 6.870333 2.056501 -0.030487 10.594387 -0.997648 -4.904558 -4.758311 -6.525668 -5.836505 9.857440 -2.284275 -3.203187 3.901459 0.000000 0.000000 0.000000 41.820081 -12.801184 -51.129843 134.084678 -51.200093 97.047442 15.942520 -30.937731 -33.133739 0.000000 0.000000 0.000000 -7.125000 0.000000 0.000000 -20.221306 63.034254 9.042804 0.000000 0.000000 0.000000 4.231152 -37.728739 103.294602 -97.197711 -59.801129 -66.229160 -35.243095 -38.392724 -4.342808 0.000000 0.000000 0.000000 7.125000 0.000000 0.000000 -6.424378 24.668374 -3.175103
0.619298 18.195998 0.054577 -2.085009 3.789150 6.700570 0.000000 0.000000 0.000000 -16.666631 -25.453732 -6.460421 1.341336 7.332811 20.705257 -0.856579 17.063671 -12.398745 0.780796 -5.637415 -15.736942 0.000000 0.000000 0.000000 18.922366 10.624882 -10.206906 -0.740380 -5.496660 15.330770 0.469766 -13.557395 -11.679770 -0.026232 1.027257 -2.823945 1.863595 0.269736 -5.899776 3.712077 -0.050847 3.694840 2.846927 -0.035795 7.193630 1.546372 -2.996681 -8.152759 -2.699444 -4.016025 3.466692 -1.316317 -2.067306 2.426241 0.000000 0.000000 0.000000 11.773531 -10.883550 -48.298300 65.004013 -57.501307 38.534557 15.420870 -17.891584 -21.882429 0.000000 0.000000 0.000000 -7.125000 0.000000 0.000000 -13.676702 52.084785 2.424804 0.000000 0.000000 0.000000 -4.154359 -28.617258 74.026190 -53.922195 -54.459189 -29.337217 -11.466539 -12.300736 -9.086596 0.000000 0.000000 0.000000 7.125000 0.000000 0.000000 11.073748 20.784478 6.544754
0.762695 18.199496 0.426842 -1.228028 -6.134320 6.902429 0.000000 0.000000 0.000000 -20.395732 -24.750910 -1.436009 1.053484 6.526650 18.320235 -1.609430 24.025724 -20.242642 0.003581 -0.385005 -1.057966 0.000000 0.000000 0.000000 17.234020 14.752999 -8.665600 -0.674259 -5.250722 14.625136 0.299781 -10.525387 -8.349799 -0.874356 5.961586 -16.672940 1.919173 -0.427124 -8.298572 5.062300 -1.243181 4.098760 4.129955 -0.675049 9.121635 2.474326 -0.189600 -6.688786 -2.289700 -0.360428 3.124496 -1.169740 -0.213178 2.132367 0.000000 0.000000 0.000000 3.363734 -2.554498 -37.313947 16.063357 -25.605924 3.673605 8.822902 10.051453 -12.767373 0.000000 0.000000 0.000000 -7.125000 0.000000 0.000000 -16.540132 42.285640 -1.141891 0.000000 0.000000 0.000000 -11.951811 -4.619925 34.926001 -51.172670 -53.457554 -27.113508 -7.618813 -3.245585 -7.415894 0.000000 0.000000 0.000000 7.125000 0.000000 0.000000 13.938805 22.553672 7.752158
0.736568 18.193570 0.509413 -2.046801 -9.419802 7.717465 0.000000 0.000000 0.000000 -19.911492 -24.824204 -1.768380 1.160540 6.839155 19.239698 -1.575385 25.441853 -24.351163 0.050451 1.447532 3.981208 0.000000 0.000000 0.000000 17.824834 15.989792 -8.684866 -0.562428 -4.803444 13.348803 0.221871 -8.829556 -6.397395 -0.951551 6.212086 -17.400984 1.642840 -0.407039 -7.585708 5.169686 -1.161424 4.106552 4.409874 -0.655835 8.714095 1.710584 0.720932 -7.121219 -4.725280 1.038710 3.165597 -1.774682 0.397743 2.286488 0.000000 0.000000 0.000000 0.466679 -0.442953 -8.417321 10.691031 -17.811418 1.681635 6.077625 18.733596 -15.321769 0.000000 0.000000 0.000000 -7.125000 0.000000 0.000000 -19.762845 44.435225 -0.290444 0.000000 0.000000 0.000000 -11.806706 5.217181 8.158354 -29.648396 -40.589494 -11.180347 -9.121457 -3.160591 -9.177672 0.000000 0.000000 0.000000 7.125000 0.000000 0.000000 12.732619 20.781068 7.573218
0.743320 18.162903 0.512894 -2.808280 -8.448168 6.816886 0.000000 0.000000 0.000000 -20.682918 -29.554662 1.439518 1.266807 7.134109 20.113252 -1.849992 28.304426 -28.417979 0.130377 2.321518 6.395283 0.000000 0.000000 0.000000 18.952472 13.938072 -8.467863 -0.607193 -4.987439 13.872645 0.156692 -7.657961 -6.113713 -0.979135 6.298564 -17.653303 1.957632 -0.013331 -6.966421 4.918422 -0.601135 3.904525 4.028560 -0.348756 8.084392 3.074702 0.442509 -8.727461 -5.886324 0.702256 6.290750 -2.489751 0.165256 3.679886 0.000000 0.000000 0.000000 7.285161 -5.626371 -7.161473 15.122908 -24.316630 3.276561 -9.886947 4.122255 -23.271206 0.000000 0.000000 0.000000 -7.125000 0.000000 0.000000 -37.612529 49.303095 4.585593 0.000000 0.000000 0.000000 -12.440349 4.336513 -9.134232 -23.135077 -34.236109 -7.214162 2.392144 3.392189 -6.226469 0.000000 0.000000 0.000000 7.125000 0.000000 0.000000 21.162396 23.730280 11.643679
0.994348 18.111432 0.623232 -0.089472 -9.870448 5.911396 0.000000 0.000000 0.000000 -23.506467 -22.384805 -0.683994 1.171989 6.871680 19.335811 -1.386768 24.170443 -23.350689 0.031661 1.142848 3.141980 0.000000 0.000000 0.000000 14.952091 13.538038 -11.337051 -1.178864 -6.889995 19.390267 -0.031069 -4.874414 -7.929869 -1.102415 6.670568 -18.743334 3.634435 -0.188733 -6.330935 6.031358 -1.020019 3.459089 4.198916 -0.502346 7.265300 3.907289 1.228854 -9.901722 -9.759361 2.030823 7.311054 -3.510888 0.597614 3.946526 0.000000 0.000000 0.000000 55.147700 2.132694 12.882578 15.293377 -24.552869 3.347066 -1.713574 -3.921313 -28.012753 0.000000 0.000000 0.000000 -7.125000 0.000000 0.000000 -33.710356 54.607005 8.697150 0.000000 0.000000 0.000000 -66.618212 11.640447 -17.750261 -20.254447 -30.947420 -5.661745 18.134291 -2.006593 -2.884165 0.000000 0.000000 0.000000 7.125000 0.000000 0.000000 32.299647 26.022427 17.688511
1.111540 18.000591 0.482974 3.442700 -8.507275 4.548586 0.000000 0.000000 0.000000 -25.969218 -13.936807 -5.366846 1.320921 7.278987 20.544719 -0.660885 16.487651 -15.066344 0.420160 -4.152782 -11.508140 0.000000 0.000000 0.000000 10.463336 13.383839 -14.373341 -2.060547 -8.991121 25.767516 -0.192494 -3.855897 -10.626213 -1.437198 7.579420 -21.443645 5.221137 -1.130974 -4.415438 6.040216 -2.380363 4.986710 3.194037 -1.083597 7.808489 4.692440 1.546284 -8.839540 -10.999895 2.542983 7.899796 -4.001042 0.824775 4.009990 0.000000 0.000000 0.000000 69.521849 10.591936 17.247471 16.901313 -26.727544 4.042834 -4.081824 -7.029053 -29.579487 0.000000 0.000000 0.000000 -7.125000 0.000000 0.000000 -37.156187 55.436568 10.576411 0.000000 0.000000 0.000000 -94.241986 17.350686 -24.035840 -20.397276 -31.117981 -5.735200 13.969191 -3.787511 -0.384766 0.000000 0.000000 0.000000 7.125000 0.000000 0.000000 30.358048 28.573495 14.040515
